<svg width="256" height="256" viewBox="0 0 256 256" fill="none" xmlns="http://www.w3.org/2000/svg">
<mask id="path-1-inside-1_1_2" fill="white">
<path fill-rule="evenodd" clip-rule="evenodd" d="M56.8711 219.471C102.326 254.909 168.123 251.727 209.925 209.925C251.727 168.123 254.909 102.326 219.471 56.8711L56.8711 219.471ZM198.225 35.8316C152.805 1.13518 87.6006 4.54968 46.0751 46.0751C4.54966 87.6006 1.13517 152.805 35.8316 198.225L198.225 35.8316Z"/>
</mask>
<path fill-rule="evenodd" clip-rule="evenodd" d="M56.8711 219.471C102.326 254.909 168.123 251.727 209.925 209.925C251.727 168.123 254.909 102.326 219.471 56.8711L56.8711 219.471ZM198.225 35.8316C152.805 1.13518 87.6006 4.54968 46.0751 46.0751C4.54966 87.6006 1.13517 152.805 35.8316 198.225L198.225 35.8316Z" fill="#10B981" fill-opacity="0.5"/>
<path d="M209.925 209.925L225.481 225.481L225.481 225.481L209.925 209.925ZM56.8711 219.471L41.3148 203.914C36.8559 208.373 34.5246 214.531 34.9128 220.825C35.301 227.119 38.3713 232.944 43.3444 236.821L56.8711 219.471ZM219.471 56.8711L236.821 43.3444C232.944 38.3713 227.119 35.301 220.825 34.9128C214.531 34.5247 208.373 36.8559 203.914 41.3148L219.471 56.8711ZM46.0751 46.0751L30.5188 30.5188L30.5188 30.5188L46.0751 46.0751ZM198.225 35.8316L213.781 51.388C218.267 46.9024 220.598 40.6988 220.176 34.3691C219.754 28.0395 216.621 22.2 211.58 18.3491L198.225 35.8316ZM35.8316 198.225L18.3491 211.58C22.2 216.621 28.0395 219.754 34.3691 220.176C40.6988 220.598 46.9023 218.267 51.388 213.781L35.8316 198.225ZM194.369 194.369C160.516 228.221 107.203 230.815 70.3978 202.12L43.3444 236.821C97.4483 279.002 175.73 275.232 225.481 225.481L194.369 194.369ZM202.12 70.3979C230.815 107.203 228.221 160.516 194.369 194.369L225.481 225.481C275.232 175.73 279.002 97.4483 236.821 43.3444L202.12 70.3979ZM203.914 41.3148L41.3148 203.914L72.4275 235.027L235.027 72.4275L203.914 41.3148ZM61.6315 61.6315C95.2593 28.0037 148.092 25.2194 184.87 53.3142L211.58 18.3491C157.518 -22.949 79.9419 -18.9043 30.5188 30.5188L61.6315 61.6315ZM53.3142 184.87C25.2194 148.092 28.0037 95.2593 61.6315 61.6315L30.5188 30.5188C-18.9043 79.9419 -22.949 157.518 18.3491 211.58L53.3142 184.87ZM51.388 213.781L213.781 51.388L182.668 20.2753L20.2753 182.668L51.388 213.781Z" fill="#10B981" mask="url(#path-1-inside-1_1_2)"/>
</svg>
