<svg width="256" height="256" viewBox="0 0 256 256" fill="none" xmlns="http://www.w3.org/2000/svg">
<path d="M39.0759 167.559C25.2289 153.712 18.3054 146.789 15.7113 138.805C13.4296 131.782 13.4296 124.218 15.7113 117.195C18.3054 109.211 25.2289 102.288 39.0759 88.4408L88.4408 39.0759C102.288 25.2289 109.211 18.3054 117.195 15.7113C124.218 13.4296 131.782 13.4296 138.805 15.7113C146.789 18.3054 153.712 25.2289 167.559 39.0759L216.924 88.4408C230.771 102.288 237.695 109.211 240.289 117.195C242.57 124.218 242.57 131.782 240.289 138.805C237.695 146.789 230.771 153.712 216.924 167.559L167.559 216.924C153.712 230.771 146.789 237.695 138.805 240.289C131.782 242.57 124.218 242.57 117.195 240.289C109.211 237.695 102.288 230.771 88.4408 216.924L39.0759 167.559Z" fill="#F97316"/>
</svg>
