<svg width="16" height="16" viewBox="0 0 256 256" fill="none" xmlns="http://www.w3.org/2000/svg">
<g clip-path="url(#clip0_8_2)">
<path d="M202.238 48.7619H187.857C185.096 48.7619 182.857 51.0005 182.857 53.7619V55.9524C182.857 58.7138 185.096 60.9524 187.857 60.9524H202.238C205 60.9524 207.238 58.7138 207.238 55.9524V53.7619C207.238 51.0005 205 48.7619 202.238 48.7619Z" fill="#56B3B4"/>
<path d="M68.1429 243.81H5C2.23858 243.81 0 246.048 0 248.81V251C0 253.761 2.23858 256 5 256H68.1429C70.9043 256 73.1429 253.761 73.1429 251V248.81C73.1429 246.048 70.9043 243.81 68.1429 243.81Z" fill="#EA5E5E"/>
<path d="M190.048 146.286H151.286C148.524 146.286 146.286 148.524 146.286 151.286V153.476C146.286 156.238 148.524 158.476 151.286 158.476H190.048C192.809 158.476 195.048 156.238 195.048 153.476V151.286C195.048 148.524 192.809 146.286 190.048 146.286Z" fill="#BF85BF"/>
<path d="M129.095 146.286H78.1429C75.3814 146.286 73.1429 148.524 73.1429 151.286V153.476C73.1429 156.238 75.3814 158.476 78.1429 158.476H129.095C131.857 158.476 134.095 156.238 134.095 153.476V151.286C134.095 148.524 131.857 146.286 129.095 146.286Z" fill="#EA5E5E"/>
<path d="M55.9524 146.286H5C2.23858 146.286 0 148.524 0 151.286V153.476C0 156.238 2.23858 158.476 5 158.476H55.9524C58.7138 158.476 60.9524 156.238 60.9524 153.476V151.286C60.9524 148.524 58.7138 146.286 55.9524 146.286Z" fill="#56B3B4"/>
<path d="M68.1429 195.048H5C2.23858 195.048 0 197.286 0 200.048V202.238C0 205 2.23858 207.238 5 207.238H68.1429C70.9043 207.238 73.1429 205 73.1429 202.238V200.048C73.1429 197.286 70.9043 195.048 68.1429 195.048Z" fill="#BF85BF"/>
<path d="M68.1429 97.5238H5C2.23858 97.5238 0 99.7624 0 102.524V104.714C0 107.476 2.23858 109.714 5 109.714H68.1429C70.9043 109.714 73.1429 107.476 73.1429 104.714V102.524C73.1429 99.7624 70.9043 97.5238 68.1429 97.5238Z" fill="#BF85BF"/>
<path d="M190.048 24.381H65.9524C63.1909 24.381 60.9524 26.6196 60.9524 29.381V31.5715C60.9524 34.3329 63.1909 36.5715 65.9524 36.5715H190.048C192.809 36.5715 195.048 34.3329 195.048 31.5715V29.381C195.048 26.6196 192.809 24.381 190.048 24.381Z" fill="#F7BA3E"/>
<path d="M43.7619 24.381H5C2.23858 24.381 0 26.6196 0 29.381V31.5715C0 34.3329 2.23858 36.5715 5 36.5715H43.7619C46.5233 36.5715 48.7619 34.3329 48.7619 31.5715V29.381C48.7619 26.6196 46.5233 24.381 43.7619 24.381Z" fill="#EA5E5E"/>
<path d="M68.1429 219.429H53.7619C51.0005 219.429 48.7619 221.667 48.7619 224.429V226.619C48.7619 229.38 51.0005 231.619 53.7619 231.619H68.1429C70.9043 231.619 73.1429 229.38 73.1429 226.619V224.429C73.1429 221.667 70.9043 219.429 68.1429 219.429Z" fill="#F7BA3E"/>
<path d="M68.1429 73.1429H53.7619C51.0005 73.1429 48.7619 75.3815 48.7619 78.1429V80.3334C48.7619 83.0948 51.0005 85.3334 53.7619 85.3334H68.1429C70.9043 85.3334 73.1429 83.0948 73.1429 80.3334V78.1429C73.1429 75.3815 70.9043 73.1429 68.1429 73.1429Z" fill="#56B3B4"/>
<path d="M31.5714 219.429H5C2.23858 219.429 0 221.667 0 224.429V226.619C0 229.38 2.23858 231.619 5 231.619H31.5714C34.3329 231.619 36.5714 229.38 36.5714 226.619V224.429C36.5714 221.667 34.3329 219.429 31.5714 219.429Z" fill="#56B3B4"/>
<path d="M31.5714 73.1429H5C2.23858 73.1429 0 75.3815 0 78.1429V80.3334C0 83.0948 2.23858 85.3334 5 85.3334H31.5714C34.3329 85.3334 36.5714 83.0948 36.5714 80.3334V78.1429C36.5714 75.3815 34.3329 73.1429 31.5714 73.1429Z" fill="#F7BA3E"/>
<path opacity="0.5" d="M177.857 219.429H163.476C160.715 219.429 158.476 221.667 158.476 224.429V226.619C158.476 229.38 160.715 231.619 163.476 231.619H177.857C180.619 231.619 182.857 229.38 182.857 226.619V224.429C182.857 221.667 180.619 219.429 177.857 219.429Z" fill="#D0D4D8"/>
<path opacity="0.5" d="M141.286 219.429H90.3333C87.5719 219.429 85.3333 221.667 85.3333 224.429V226.619C85.3333 229.38 87.5719 231.619 90.3333 231.619H141.286C144.047 231.619 146.286 229.38 146.286 226.619V224.429C146.286 221.667 144.047 219.429 141.286 219.429Z" fill="#D0D4D8"/>
<path opacity="0.5" d="M251 219.429H200.048C197.286 219.429 195.048 221.667 195.048 224.429V226.619C195.048 229.38 197.286 231.619 200.048 231.619H251C253.761 231.619 256 229.38 256 226.619V224.429C256 221.667 253.761 219.429 251 219.429Z" fill="#D0D4D8"/>
<path d="M202.238 121.905H102.524C99.7624 121.905 97.5238 124.143 97.5238 126.905V129.095C97.5238 131.857 99.7624 134.095 102.524 134.095H202.238C205 134.095 207.238 131.857 207.238 129.095V126.905C207.238 124.143 205 121.905 202.238 121.905Z" fill="#56B3B4"/>
<path d="M80.3333 121.905H41.5714C38.81 121.905 36.5714 124.143 36.5714 126.905V129.095C36.5714 131.857 38.81 134.095 41.5714 134.095H80.3333C83.0948 134.095 85.3333 131.857 85.3333 129.095V126.905C85.3333 124.143 83.0948 121.905 80.3333 121.905Z" fill="#F7BA3E"/>
<path d="M19.381 121.905H5C2.23858 121.905 0 124.143 0 126.905V129.095C0 131.857 2.23858 134.095 5 134.095H19.381C22.1424 134.095 24.381 131.857 24.381 129.095V126.905C24.381 124.143 22.1424 121.905 19.381 121.905Z" fill="#EA5E5E"/>
<path d="M165.667 48.7619H114.714C111.953 48.7619 109.714 51.0005 109.714 53.7619V55.9524C109.714 58.7138 111.953 60.9524 114.714 60.9524H165.667C168.428 60.9524 170.667 58.7138 170.667 55.9524V53.7619C170.667 51.0005 168.428 48.7619 165.667 48.7619Z" fill="#BF85BF"/>
<path d="M92.5238 48.7619H5C2.23858 48.7619 0 51.0005 0 53.7619V55.9524C0 58.7138 2.23858 60.9524 5 60.9524H92.5238C95.2852 60.9524 97.5238 58.7138 97.5238 55.9524V53.7619C97.5238 51.0005 95.2852 48.7619 92.5238 48.7619Z" fill="#56B3B4"/>
<path d="M153.476 170.667H41.5714C38.81 170.667 36.5714 172.905 36.5714 175.667V177.857C36.5714 180.619 38.81 182.857 41.5714 182.857H153.476C156.238 182.857 158.476 180.619 158.476 177.857V175.667C158.476 172.905 156.238 170.667 153.476 170.667Z" fill="#F7BA3E"/>
<path d="M19.381 170.667H5C2.23858 170.667 0 172.905 0 175.667V177.857C0 180.619 2.23858 182.857 5 182.857H19.381C22.1424 182.857 24.381 180.619 24.381 177.857V175.667C24.381 172.905 22.1424 170.667 19.381 170.667Z" fill="#BF85BF"/>
<path d="M214.429 73.1429H151.286C148.524 73.1429 146.286 75.3815 146.286 78.1429V80.3334C146.286 83.0948 148.524 85.3334 151.286 85.3334H214.429C217.19 85.3334 219.429 83.0948 219.429 80.3334V78.1429C219.429 75.3815 217.19 73.1429 214.429 73.1429Z" fill="#EA5E5E"/>
<path d="M214.429 97.5238H151.286C148.524 97.5238 146.286 99.7624 146.286 102.524V104.714C146.286 107.476 148.524 109.714 151.286 109.714H214.429C217.19 109.714 219.429 107.476 219.429 104.714V102.524C219.429 99.7624 217.19 97.5238 214.429 97.5238Z" fill="#F7BA3E"/>
<path d="M153.476 0H5C2.23858 0 0 2.23858 0 5V7.19048C0 9.9519 2.23858 12.1905 5 12.1905H153.476C156.238 12.1905 158.476 9.9519 158.476 7.19048V5C158.476 2.23858 156.238 0 153.476 0Z" fill="#56B3B4"/>
<path opacity="0.5" d="M251 0H175.667C172.905 0 170.667 2.23858 170.667 5V7.19048C170.667 9.9519 172.905 12.1905 175.667 12.1905H251C253.761 12.1905 256 9.9519 256 7.19048V5C256 2.23858 253.761 0 251 0Z" fill="#D0D4D8"/>
<path opacity="0.5" d="M202.238 170.667H175.667C172.905 170.667 170.667 172.905 170.667 175.667V177.857C170.667 180.619 172.905 182.857 175.667 182.857H202.238C205 182.857 207.238 180.619 207.238 177.857V175.667C207.238 172.905 205 170.667 202.238 170.667Z" fill="#D0D4D8"/>
<path opacity="0.5" d="M251 170.667H224.429C221.667 170.667 219.429 172.905 219.429 175.667V177.857C219.429 180.619 221.667 182.857 224.429 182.857H251C253.761 182.857 256 180.619 256 177.857V175.667C256 172.905 253.761 170.667 251 170.667Z" fill="#D0D4D8"/>
<path opacity="0.5" d="M251 146.286H212.238C209.477 146.286 207.238 148.524 207.238 151.286V153.476C207.238 156.238 209.477 158.476 212.238 158.476H251C253.761 158.476 256 156.238 256 153.476V151.286C256 148.524 253.761 146.286 251 146.286Z" fill="#D0D4D8"/>
<path opacity="0.5" d="M251 24.381H212.238C209.477 24.381 207.238 26.6196 207.238 29.381V31.5715C207.238 34.3329 209.477 36.5715 212.238 36.5715H251C253.761 36.5715 256 34.3329 256 31.5715V29.381C256 26.6196 253.761 24.381 251 24.381Z" fill="#D0D4D8"/>
<path opacity="0.5" d="M251 121.905H224.429C221.667 121.905 219.429 124.143 219.429 126.905V129.095C219.429 131.857 221.667 134.095 224.429 134.095H251C253.761 134.095 256 131.857 256 129.095V126.905C256 124.143 253.761 121.905 251 121.905Z" fill="#D0D4D8"/>
<path opacity="0.5" d="M251 48.7619H224.429C221.667 48.7619 219.429 51.0005 219.429 53.7619V55.9524C219.429 58.7138 221.667 60.9524 224.429 60.9524H251C253.761 60.9524 256 58.7138 256 55.9524V53.7619C256 51.0005 253.761 48.7619 251 48.7619Z" fill="#D0D4D8"/>
<path opacity="0.5" d="M251 73.1429H236.619C233.858 73.1429 231.619 75.3815 231.619 78.1429V80.3334C231.619 83.0948 233.858 85.3334 236.619 85.3334H251C253.761 85.3334 256 83.0948 256 80.3334V78.1429C256 75.3815 253.761 73.1429 251 73.1429Z" fill="#D0D4D8"/>
<path opacity="0.5" d="M251 97.5238H236.619C233.858 97.5238 231.619 99.7624 231.619 102.524V104.714C231.619 107.476 233.858 109.714 236.619 109.714H251C253.761 109.714 256 107.476 256 104.714V102.524C256 99.7624 253.761 97.5238 251 97.5238Z" fill="#D0D4D8"/>
<path opacity="0.5" d="M251 195.048H139.095C136.334 195.048 134.095 197.286 134.095 200.048V202.238C134.095 205 136.334 207.238 139.095 207.238H251C253.761 207.238 256 205 256 202.238V200.048C256 197.286 253.761 195.048 251 195.048Z" fill="#D0D4D8"/>
<path opacity="0.5" d="M116.905 195.048H90.3333C87.5719 195.048 85.3333 197.286 85.3333 200.048V202.238C85.3333 205 87.5719 207.238 90.3333 207.238H116.905C119.666 207.238 121.905 205 121.905 202.238V200.048C121.905 197.286 119.666 195.048 116.905 195.048Z" fill="#D0D4D8"/>
<path opacity="0.5" d="M251 243.81H187.857C185.096 243.81 182.857 246.048 182.857 248.81V251C182.857 253.761 185.096 256 187.857 256H251C253.761 256 256 253.761 256 251V248.81C256 246.048 253.761 243.81 251 243.81Z" fill="#D0D4D8"/>
<path opacity="0.5" d="M165.667 243.81H90.3333C87.5719 243.81 85.3333 246.048 85.3333 248.81V251C85.3333 253.761 87.5719 256 90.3333 256H165.667C168.428 256 170.667 253.761 170.667 251V248.81C170.667 246.048 168.428 243.81 165.667 243.81Z" fill="#D0D4D8"/>
<path opacity="0.5" d="M129.095 73.1429H90.3333C87.5719 73.1429 85.3333 75.3815 85.3333 78.1429V80.3334C85.3333 83.0948 87.5719 85.3334 90.3333 85.3334H129.095C131.857 85.3334 134.095 83.0948 134.095 80.3334V78.1429C134.095 75.3815 131.857 73.1429 129.095 73.1429Z" fill="#D0D4D8"/>
<path opacity="0.5" d="M129.095 97.5238H90.3333C87.5719 97.5238 85.3333 99.7624 85.3333 102.524V104.714C85.3333 107.476 87.5719 109.714 90.3333 109.714H129.095C131.857 109.714 134.095 107.476 134.095 104.714V102.524C134.095 99.7624 131.857 97.5238 129.095 97.5238Z" fill="#D0D4D8"/>
</g>
<defs>
<clipPath id="clip0_8_2">
<rect width="256" height="256" fill="white"/>
</clipPath>
</defs>
</svg>
